<svg xmlns="http://www.w3.org/2000/svg" viewBox="0 0 658 144">
<path d="M54 0H126C135.941 0 144 8.05887 144 18V45H72C62.0589 45 54 36.9411 54 27V0Z" fill="#F2626A"/>
<path d="M45 0L45 72C45 81.9411 36.9411 90 27 90L-1.073e-06 90L2.07422e-06 18C2.50876e-06 8.05887 8.05888 -1.61475e-06 18 -1.18021e-06L45 0Z" fill="#F3BD3D"/>
<path d="M90 144L18 144C8.05888 144 2.13504e-06 135.941 3.00412e-06 126L5.36454e-06 99L72 99C81.9411 99 90 107.059 90 117L90 144Z" fill="#706DF2"/>
<path d="M99 144L99 72C99 62.0589 107.059 54 117 54L144 54L144 126C144 135.941 135.941 144 126 144L99 144Z" fill="#4CD9B6"/>
<path fill-rule="evenodd" clip-rule="evenodd" d="M557.261 117.742V52.6214H573.803V117.742H557.261ZM565.532 45.0066C562.556 45.0066 560.018 44.0438 557.917 42.1182C555.904 40.1926 554.897 37.6543 554.897 34.5033C554.897 31.3523 555.904 28.814 557.917 26.8884C560.018 24.9628 562.556 24 565.532 24C568.595 24 571.134 24.9628 573.147 26.8884C575.16 28.814 576.166 31.3523 576.166 34.5033C576.166 37.6543 575.16 40.1926 573.147 42.1182C571.134 44.0438 568.595 45.0066 565.532 45.0066ZM188 25.8381V117.742H205.33V83.081H229.488C232.026 83.081 233.821 83.7374 234.871 85.0503C236.009 86.3632 236.578 88.07 236.578 90.1707V117.742H253.908V87.6762C253.908 84 252.945 81.0678 251.02 78.8797C249.094 76.6039 246.381 75.3786 242.88 75.2035V72.8403C246.731 71.2648 249.969 68.7702 252.595 65.3567C255.221 61.9431 256.534 57.4792 256.534 51.965V50.3895C256.534 45.4004 255.352 41.0678 252.989 37.3917C250.626 33.7155 247.3 30.8709 243.011 28.8578C238.722 26.8446 233.689 25.8381 227.912 25.8381H188ZM226.074 67.326H205.33V41.593H226.074C230.276 41.593 233.514 42.7309 235.79 45.0066C238.066 47.1947 239.204 50.1269 239.204 53.8031V55.116C239.204 58.7921 238.022 61.7681 235.659 64.0438C233.383 66.232 230.188 67.326 226.074 67.326ZM283.952 115.51C288.941 118.223 294.674 119.58 301.151 119.58C307.103 119.58 312.005 118.661 315.856 116.823C319.707 114.897 322.771 112.621 325.046 109.996C327.41 107.282 329.204 104.788 330.429 102.512L316.906 95.4223C315.768 97.8731 314.105 100.105 311.917 102.118C309.729 104.131 306.315 105.138 301.676 105.138C297.125 105.138 293.274 103.737 290.123 100.937C286.972 98.1357 285.309 94.5033 285.134 90.0394H332.53V84.3939C332.53 77.7418 331.217 71.9212 328.591 66.9322C325.965 61.8556 322.289 57.9169 317.563 55.116C312.836 52.2276 307.278 50.7834 300.889 50.7834C294.412 50.7834 288.722 52.1838 283.821 54.9847C278.919 57.698 275.112 61.593 272.399 66.6696C269.685 71.6586 268.329 77.5667 268.329 84.3939V85.9694C268.329 92.7965 269.685 98.7484 272.399 103.825C275.199 108.814 279.051 112.709 283.952 115.51ZM315.725 77.698H285.265C285.878 73.9344 287.497 70.9147 290.123 68.639C292.749 66.3632 296.294 65.2254 300.757 65.2254C305.046 65.2254 308.504 66.3632 311.129 68.639C313.843 70.9147 315.375 73.9344 315.725 77.698ZM354.974 117.742V66.2757H338.431V52.6214H354.974V40.5427C354.974 36.0788 356.287 32.5339 358.913 29.9081C361.626 27.1947 365.127 25.8381 369.416 25.8381H386.484V39.4923H375.193C372.742 39.4923 371.516 40.8053 371.516 43.4311V52.6214H384.646H397.775V40.5427C397.775 36.0788 399.088 32.5339 401.713 29.9081C404.427 27.1947 407.928 25.8381 412.217 25.8381H429.284V39.4923H417.993C415.543 39.4923 414.317 40.8053 414.317 43.4311V52.6214H431.385V66.2757H414.317V117.742H397.775V66.2757H384.646H371.516V117.742H354.974ZM451.304 129.558V144H492.267C496.644 144 500.145 142.643 502.771 139.93C505.396 137.304 506.709 133.759 506.709 129.295V52.6214H490.167V85.7068C490.167 91.7462 488.766 96.4726 485.965 99.8862C483.164 103.212 479.226 104.875 474.149 104.875C469.685 104.875 466.228 103.65 463.777 101.199C461.414 98.7484 460.232 95.0722 460.232 90.1707V52.6214H443.69V91.4836C443.69 96.8228 444.74 101.549 446.841 105.663C448.941 109.777 451.873 113.015 455.637 115.379C459.488 117.654 463.952 118.792 469.029 118.792C472.967 118.792 476.206 118.311 478.744 117.348C481.283 116.385 483.296 115.16 484.784 113.672C486.272 112.184 487.366 110.696 488.066 109.208H490.429V125.619C490.429 128.245 489.204 129.558 486.753 129.558H451.304ZM605.658 115.641C610.822 118.267 616.642 119.58 623.119 119.58C629.596 119.58 635.417 118.267 640.581 115.641C645.745 113.015 649.815 109.208 652.791 104.219C655.767 99.2298 657.255 93.2341 657.255 86.232V84.1313C657.255 77.1291 655.767 71.1335 652.791 66.1444C649.815 61.1554 645.745 57.3479 640.581 54.7221C635.417 52.0963 629.596 50.7834 623.119 50.7834C616.642 50.7834 610.822 52.0963 605.658 54.7221C600.494 57.3479 596.424 61.1554 593.448 66.1444C590.472 71.1335 588.984 77.1291 588.984 84.1313V86.232C588.984 93.2341 590.472 99.2298 593.448 104.219C596.424 109.208 600.494 113.015 605.658 115.641ZM635.723 100.018C632.397 103.256 628.196 104.875 623.119 104.875C618.043 104.875 613.841 103.256 610.515 100.018C607.189 96.6915 605.526 91.965 605.526 85.8381V84.5252C605.526 78.3983 607.189 73.7155 610.515 70.477C613.841 67.151 618.043 65.488 623.119 65.488C628.284 65.488 632.485 67.151 635.723 70.477C639.049 73.7155 640.712 78.3983 640.712 84.5252V85.8381C640.712 91.965 639.049 96.6915 635.723 100.018ZM531.835 119.85C528.859 119.85 526.321 118.888 524.22 116.962C522.207 115.036 521.201 112.498 521.201 109.347C521.201 106.196 522.207 103.658 524.22 101.732C526.321 99.8066 528.859 98.8438 531.835 98.8438C534.899 98.8438 537.437 99.8066 539.45 101.732C541.463 103.658 542.47 106.196 542.47 109.347C542.47 112.498 541.463 115.036 539.45 116.962C537.437 118.888 534.899 119.85 531.835 119.85Z" fill="currentColor"/>
</svg>
